<?xml version="1.0" encoding="iso-8859-1"?>
<!-- Generator: Adobe Illustrator 18.0.0, SVG Export Plug-In . SVG Version: 6.00 Build 0)  -->
<!DOCTYPE svg PUBLIC "-//W3C//DTD SVG 1.1//EN" "http://www.w3.org/Graphics/SVG/1.1/DTD/svg11.dtd">
<svg version="1.1" id="Capa_1" xmlns="http://www.w3.org/2000/svg" xmlns:xlink="http://www.w3.org/1999/xlink" x="0px" y="0px"
	 viewBox="0 0 297.5 297.5" style="enable-background:new 0 0 297.5 297.5;" xml:space="preserve">
<g>
	<g id="XMLID_40_">
		<g>
			<rect x="20.25" y="235.75" style="fill:#a685e2;" width="187" height="29.5"/>
			<path d="M297.25,102v79.75c0,5.52-4.47,10-10,10c-5.52,0-10-4.48-10-10V102c0-12.44-8.83-23.26-21-25.73
				c-4.72-0.95-8.09-5.14-8.01-9.96l0.01-0.62c0-18.41-15.03-33.44-33.5-33.44s-33.5,15.03-33.5,33.5s15.03,33.5,33.5,33.5
				l0.57-0.02c4.79-0.1,9,3.29,9.96,8.02c2.46,12.17,13.28,21,25.72,21c5.53,0,10,4.48,10,10v43.5c0,5.52-4.47,10-10,10
				c-5.52,0-10-4.48-10-10v-34.6c-14.96-3.33-27.48-13.99-33.09-28.34c-26.28-3.36-46.66-25.88-46.66-53.06
				c0-29.5,24-53.5,53.5-53.5c27.19,0,49.7,20.38,53.07,46.66C285.26,65.73,297.25,82.76,297.25,102z"/>
			<path d="M296.25,225.75v49.5c0,5.52-4.47,10-10,10c-5.52,0-10-4.48-10-10v-49.5c0-5.52,4.48-10,10-10
				C291.78,215.75,296.25,220.23,296.25,225.75z"/>
			<path d="M261.75,225.75v49.5c0,5.52-4.47,10-10,10c-5.52,0-10-4.48-10-10v-49.5c0-5.52,4.48-10,10-10
				C257.28,215.75,261.75,220.23,261.75,225.75z"/>
			<path d="M227.25,225.75v49.5c0,5.52-4.47,10-10,10h-207c-5.52,0-10-4.48-10-10v-49.5c0-5.52,4.48-10,10-10h207
				C222.78,215.75,227.25,220.23,227.25,225.75z M207.25,265.25v-29.5h-187v29.5H207.25z"/>
		</g>
		<g>
		</g>
	</g>
</g>
<g>
</g>
<g>
</g>
<g>
</g>
<g>
</g>
<g>
</g>
<g>
</g>
<g>
</g>
<g>
</g>
<g>
</g>
<g>
</g>
<g>
</g>
<g>
</g>
<g>
</g>
<g>
</g>
<g>
</g>
</svg>
